<mxfile host="app.diagrams.net" modified="2024-03-23T04:26:57.166Z" agent="Mozilla/5.0 (Windows NT 10.0; Win64; x64) AppleWebKit/537.36 (KHTML, like Gecko) Chrome/122.0.0.0 Safari/537.36" etag="xOIL6hpINeoBunh1mNb2" version="24.0.8" type="device">
  <diagram name="PÃ¡gina-1" id="-8-zfnbk5xIAu9Jv9aKO">
    <mxGraphModel dx="1434" dy="784" grid="1" gridSize="10" guides="1" tooltips="1" connect="1" arrows="1" fold="1" page="1" pageScale="1" pageWidth="850" pageHeight="1100" math="0" shadow="0">
      <root>
        <mxCell id="0" />
        <mxCell id="1" parent="0" />
        <mxCell id="h2kuItt2buHwrCdqFla5-5" style="edgeStyle=orthogonalEdgeStyle;rounded=0;orthogonalLoop=1;jettySize=auto;html=1;entryX=1;entryY=0.5;entryDx=0;entryDy=0;endArrow=none;endFill=0;" edge="1" parent="1" source="h2kuItt2buHwrCdqFla5-1" target="h2kuItt2buHwrCdqFla5-4">
          <mxGeometry relative="1" as="geometry" />
        </mxCell>
        <mxCell id="h2kuItt2buHwrCdqFla5-7" style="edgeStyle=orthogonalEdgeStyle;rounded=0;orthogonalLoop=1;jettySize=auto;html=1;entryX=1;entryY=0.5;entryDx=0;entryDy=0;endArrow=none;endFill=0;" edge="1" parent="1" source="h2kuItt2buHwrCdqFla5-1" target="h2kuItt2buHwrCdqFla5-6">
          <mxGeometry relative="1" as="geometry" />
        </mxCell>
        <mxCell id="h2kuItt2buHwrCdqFla5-11" style="edgeStyle=orthogonalEdgeStyle;rounded=0;orthogonalLoop=1;jettySize=auto;html=1;entryX=1;entryY=0.5;entryDx=0;entryDy=0;endArrow=none;endFill=0;" edge="1" parent="1" source="h2kuItt2buHwrCdqFla5-1" target="h2kuItt2buHwrCdqFla5-10">
          <mxGeometry relative="1" as="geometry" />
        </mxCell>
        <mxCell id="h2kuItt2buHwrCdqFla5-13" style="edgeStyle=orthogonalEdgeStyle;rounded=0;orthogonalLoop=1;jettySize=auto;html=1;entryX=1;entryY=0.5;entryDx=0;entryDy=0;endArrow=none;endFill=0;" edge="1" parent="1" source="h2kuItt2buHwrCdqFla5-1" target="h2kuItt2buHwrCdqFla5-12">
          <mxGeometry relative="1" as="geometry" />
        </mxCell>
        <mxCell id="h2kuItt2buHwrCdqFla5-15" style="edgeStyle=orthogonalEdgeStyle;rounded=0;orthogonalLoop=1;jettySize=auto;html=1;entryX=0;entryY=0.5;entryDx=0;entryDy=0;endArrow=none;endFill=0;" edge="1" parent="1" source="h2kuItt2buHwrCdqFla5-1" target="h2kuItt2buHwrCdqFla5-14">
          <mxGeometry relative="1" as="geometry" />
        </mxCell>
        <mxCell id="h2kuItt2buHwrCdqFla5-1" value="HOSPITAL&amp;nbsp;" style="whiteSpace=wrap;html=1;align=center;" vertex="1" parent="1">
          <mxGeometry x="360" y="280" width="100" height="40" as="geometry" />
        </mxCell>
        <mxCell id="h2kuItt2buHwrCdqFla5-4" value="nombre_hospital" style="ellipse;whiteSpace=wrap;html=1;align=center;" vertex="1" parent="1">
          <mxGeometry x="150" y="160" width="100" height="40" as="geometry" />
        </mxCell>
        <mxCell id="h2kuItt2buHwrCdqFla5-6" value="ubicacion" style="ellipse;whiteSpace=wrap;html=1;align=center;" vertex="1" parent="1">
          <mxGeometry x="150" y="230" width="100" height="40" as="geometry" />
        </mxCell>
        <mxCell id="h2kuItt2buHwrCdqFla5-10" value="num.telefonico" style="ellipse;whiteSpace=wrap;html=1;align=center;" vertex="1" parent="1">
          <mxGeometry x="150" y="300" width="100" height="40" as="geometry" />
        </mxCell>
        <mxCell id="h2kuItt2buHwrCdqFla5-12" value="ID-hospital" style="ellipse;whiteSpace=wrap;html=1;align=center;fontStyle=4;" vertex="1" parent="1">
          <mxGeometry x="150" y="370" width="100" height="40" as="geometry" />
        </mxCell>
        <mxCell id="h2kuItt2buHwrCdqFla5-17" style="edgeStyle=orthogonalEdgeStyle;rounded=0;orthogonalLoop=1;jettySize=auto;html=1;entryX=0;entryY=0.5;entryDx=0;entryDy=0;endArrow=ERmany;endFill=0;" edge="1" parent="1" source="h2kuItt2buHwrCdqFla5-14" target="h2kuItt2buHwrCdqFla5-16">
          <mxGeometry relative="1" as="geometry" />
        </mxCell>
        <mxCell id="h2kuItt2buHwrCdqFla5-14" value="tiene" style="shape=rhombus;perimeter=rhombusPerimeter;whiteSpace=wrap;html=1;align=center;" vertex="1" parent="1">
          <mxGeometry x="540" y="270" width="120" height="60" as="geometry" />
        </mxCell>
        <mxCell id="h2kuItt2buHwrCdqFla5-23" style="edgeStyle=orthogonalEdgeStyle;rounded=0;orthogonalLoop=1;jettySize=auto;html=1;endArrow=none;endFill=0;" edge="1" parent="1" source="h2kuItt2buHwrCdqFla5-16" target="h2kuItt2buHwrCdqFla5-18">
          <mxGeometry relative="1" as="geometry" />
        </mxCell>
        <mxCell id="h2kuItt2buHwrCdqFla5-24" style="edgeStyle=orthogonalEdgeStyle;rounded=0;orthogonalLoop=1;jettySize=auto;html=1;endArrow=none;endFill=0;" edge="1" parent="1" source="h2kuItt2buHwrCdqFla5-16" target="h2kuItt2buHwrCdqFla5-19">
          <mxGeometry relative="1" as="geometry" />
        </mxCell>
        <mxCell id="h2kuItt2buHwrCdqFla5-25" style="edgeStyle=orthogonalEdgeStyle;rounded=0;orthogonalLoop=1;jettySize=auto;html=1;entryX=0.5;entryY=1;entryDx=0;entryDy=0;endArrow=none;endFill=0;" edge="1" parent="1" source="h2kuItt2buHwrCdqFla5-16" target="h2kuItt2buHwrCdqFla5-20">
          <mxGeometry relative="1" as="geometry">
            <Array as="points">
              <mxPoint x="770" y="200" />
              <mxPoint x="910" y="200" />
            </Array>
          </mxGeometry>
        </mxCell>
        <mxCell id="h2kuItt2buHwrCdqFla5-26" style="edgeStyle=orthogonalEdgeStyle;rounded=0;orthogonalLoop=1;jettySize=auto;html=1;endArrow=none;endFill=0;" edge="1" parent="1" source="h2kuItt2buHwrCdqFla5-16" target="h2kuItt2buHwrCdqFla5-22">
          <mxGeometry relative="1" as="geometry">
            <Array as="points">
              <mxPoint x="770" y="200" />
              <mxPoint x="1020" y="200" />
            </Array>
          </mxGeometry>
        </mxCell>
        <mxCell id="h2kuItt2buHwrCdqFla5-16" value="habitaciones" style="whiteSpace=wrap;html=1;align=center;" vertex="1" parent="1">
          <mxGeometry x="720" y="280" width="100" height="40" as="geometry" />
        </mxCell>
        <mxCell id="h2kuItt2buHwrCdqFla5-18" value="costo" style="ellipse;whiteSpace=wrap;html=1;align=center;dashed=1;" vertex="1" parent="1">
          <mxGeometry x="640" y="80" width="100" height="40" as="geometry" />
        </mxCell>
        <mxCell id="h2kuItt2buHwrCdqFla5-19" value="disponibilidad" style="ellipse;whiteSpace=wrap;html=1;align=center;" vertex="1" parent="1">
          <mxGeometry x="750" y="80" width="100" height="40" as="geometry" />
        </mxCell>
        <mxCell id="h2kuItt2buHwrCdqFla5-20" value="tip_habitacion" style="ellipse;whiteSpace=wrap;html=1;align=center;" vertex="1" parent="1">
          <mxGeometry x="860" y="80" width="100" height="40" as="geometry" />
        </mxCell>
        <mxCell id="h2kuItt2buHwrCdqFla5-22" value="no.Habitacion" style="ellipse;whiteSpace=wrap;html=1;align=center;fontStyle=4;" vertex="1" parent="1">
          <mxGeometry x="970" y="80" width="100" height="40" as="geometry" />
        </mxCell>
        <mxCell id="h2kuItt2buHwrCdqFla5-31" style="edgeStyle=orthogonalEdgeStyle;rounded=0;orthogonalLoop=1;jettySize=auto;html=1;endArrow=none;endFill=0;" edge="1" parent="1" source="h2kuItt2buHwrCdqFla5-27" target="h2kuItt2buHwrCdqFla5-29">
          <mxGeometry relative="1" as="geometry" />
        </mxCell>
        <mxCell id="h2kuItt2buHwrCdqFla5-32" value="" style="edgeStyle=orthogonalEdgeStyle;rounded=0;orthogonalLoop=1;jettySize=auto;html=1;endArrow=none;endFill=0;" edge="1" parent="1" source="h2kuItt2buHwrCdqFla5-27" target="h2kuItt2buHwrCdqFla5-30">
          <mxGeometry relative="1" as="geometry" />
        </mxCell>
        <mxCell id="h2kuItt2buHwrCdqFla5-34" style="edgeStyle=orthogonalEdgeStyle;rounded=0;orthogonalLoop=1;jettySize=auto;html=1;entryX=0.5;entryY=0;entryDx=0;entryDy=0;endArrow=none;endFill=0;" edge="1" parent="1" source="h2kuItt2buHwrCdqFla5-27" target="h2kuItt2buHwrCdqFla5-33">
          <mxGeometry relative="1" as="geometry" />
        </mxCell>
        <mxCell id="h2kuItt2buHwrCdqFla5-70" style="edgeStyle=orthogonalEdgeStyle;rounded=0;orthogonalLoop=1;jettySize=auto;html=1;endArrow=ERmany;endFill=0;" edge="1" parent="1" source="h2kuItt2buHwrCdqFla5-27" target="h2kuItt2buHwrCdqFla5-16">
          <mxGeometry relative="1" as="geometry" />
        </mxCell>
        <mxCell id="h2kuItt2buHwrCdqFla5-27" value="contiene" style="shape=rhombus;perimeter=rhombusPerimeter;whiteSpace=wrap;html=1;align=center;" vertex="1" parent="1">
          <mxGeometry x="710" y="400" width="120" height="60" as="geometry" />
        </mxCell>
        <mxCell id="h2kuItt2buHwrCdqFla5-43" style="edgeStyle=orthogonalEdgeStyle;rounded=0;orthogonalLoop=1;jettySize=auto;html=1;entryX=1;entryY=0.5;entryDx=0;entryDy=0;endArrow=none;endFill=0;" edge="1" parent="1" source="h2kuItt2buHwrCdqFla5-29" target="h2kuItt2buHwrCdqFla5-38">
          <mxGeometry relative="1" as="geometry" />
        </mxCell>
        <mxCell id="h2kuItt2buHwrCdqFla5-44" style="edgeStyle=orthogonalEdgeStyle;rounded=0;orthogonalLoop=1;jettySize=auto;html=1;entryX=1;entryY=0.5;entryDx=0;entryDy=0;endArrow=none;endFill=0;" edge="1" parent="1" source="h2kuItt2buHwrCdqFla5-29" target="h2kuItt2buHwrCdqFla5-36">
          <mxGeometry relative="1" as="geometry" />
        </mxCell>
        <mxCell id="h2kuItt2buHwrCdqFla5-45" style="edgeStyle=orthogonalEdgeStyle;rounded=0;orthogonalLoop=1;jettySize=auto;html=1;entryX=1;entryY=0.5;entryDx=0;entryDy=0;endArrow=none;endFill=0;" edge="1" parent="1" source="h2kuItt2buHwrCdqFla5-29" target="h2kuItt2buHwrCdqFla5-40">
          <mxGeometry relative="1" as="geometry" />
        </mxCell>
        <mxCell id="h2kuItt2buHwrCdqFla5-46" style="edgeStyle=orthogonalEdgeStyle;rounded=0;orthogonalLoop=1;jettySize=auto;html=1;entryX=1;entryY=0.5;entryDx=0;entryDy=0;endArrow=none;endFill=0;" edge="1" parent="1" source="h2kuItt2buHwrCdqFla5-29" target="h2kuItt2buHwrCdqFla5-42">
          <mxGeometry relative="1" as="geometry" />
        </mxCell>
        <mxCell id="h2kuItt2buHwrCdqFla5-29" value="enfermeras" style="whiteSpace=wrap;html=1;align=center;" vertex="1" parent="1">
          <mxGeometry x="400" y="480" width="100" height="40" as="geometry" />
        </mxCell>
        <mxCell id="h2kuItt2buHwrCdqFla5-53" style="edgeStyle=orthogonalEdgeStyle;rounded=0;orthogonalLoop=1;jettySize=auto;html=1;entryX=0.5;entryY=0;entryDx=0;entryDy=0;endArrow=none;endFill=0;" edge="1" parent="1" source="h2kuItt2buHwrCdqFla5-30" target="h2kuItt2buHwrCdqFla5-51">
          <mxGeometry relative="1" as="geometry">
            <Array as="points">
              <mxPoint x="770" y="700" />
              <mxPoint x="490" y="700" />
            </Array>
          </mxGeometry>
        </mxCell>
        <mxCell id="h2kuItt2buHwrCdqFla5-54" style="edgeStyle=orthogonalEdgeStyle;rounded=0;orthogonalLoop=1;jettySize=auto;html=1;entryX=0.5;entryY=0;entryDx=0;entryDy=0;endArrow=none;endFill=0;" edge="1" parent="1" source="h2kuItt2buHwrCdqFla5-30" target="h2kuItt2buHwrCdqFla5-47">
          <mxGeometry relative="1" as="geometry">
            <Array as="points">
              <mxPoint x="770" y="700" />
              <mxPoint x="610" y="700" />
            </Array>
          </mxGeometry>
        </mxCell>
        <mxCell id="h2kuItt2buHwrCdqFla5-55" style="edgeStyle=orthogonalEdgeStyle;rounded=0;orthogonalLoop=1;jettySize=auto;html=1;entryX=0.5;entryY=0;entryDx=0;entryDy=0;endArrow=none;endFill=0;" edge="1" parent="1" source="h2kuItt2buHwrCdqFla5-30" target="h2kuItt2buHwrCdqFla5-49">
          <mxGeometry relative="1" as="geometry">
            <Array as="points">
              <mxPoint x="770" y="700" />
              <mxPoint x="730" y="700" />
            </Array>
          </mxGeometry>
        </mxCell>
        <mxCell id="h2kuItt2buHwrCdqFla5-56" style="edgeStyle=orthogonalEdgeStyle;rounded=0;orthogonalLoop=1;jettySize=auto;html=1;endArrow=none;endFill=0;" edge="1" parent="1" source="h2kuItt2buHwrCdqFla5-30" target="h2kuItt2buHwrCdqFla5-50">
          <mxGeometry relative="1" as="geometry">
            <Array as="points">
              <mxPoint x="770" y="700" />
              <mxPoint x="860" y="700" />
            </Array>
          </mxGeometry>
        </mxCell>
        <mxCell id="h2kuItt2buHwrCdqFla5-57" style="edgeStyle=orthogonalEdgeStyle;rounded=0;orthogonalLoop=1;jettySize=auto;html=1;entryX=0.5;entryY=0;entryDx=0;entryDy=0;endArrow=none;endFill=0;" edge="1" parent="1" source="h2kuItt2buHwrCdqFla5-30" target="h2kuItt2buHwrCdqFla5-52">
          <mxGeometry relative="1" as="geometry">
            <Array as="points">
              <mxPoint x="770" y="700" />
              <mxPoint x="980" y="700" />
            </Array>
          </mxGeometry>
        </mxCell>
        <mxCell id="h2kuItt2buHwrCdqFla5-30" value="medicos" style="whiteSpace=wrap;html=1;align=center;" vertex="1" parent="1">
          <mxGeometry x="720" y="610" width="100" height="40" as="geometry" />
        </mxCell>
        <mxCell id="h2kuItt2buHwrCdqFla5-65" style="edgeStyle=orthogonalEdgeStyle;rounded=0;orthogonalLoop=1;jettySize=auto;html=1;entryX=0;entryY=0.5;entryDx=0;entryDy=0;endArrow=none;endFill=0;" edge="1" parent="1" source="h2kuItt2buHwrCdqFla5-33" target="h2kuItt2buHwrCdqFla5-58">
          <mxGeometry relative="1" as="geometry" />
        </mxCell>
        <mxCell id="h2kuItt2buHwrCdqFla5-66" style="edgeStyle=orthogonalEdgeStyle;rounded=0;orthogonalLoop=1;jettySize=auto;html=1;entryX=0;entryY=0.5;entryDx=0;entryDy=0;endArrow=none;endFill=0;" edge="1" parent="1" source="h2kuItt2buHwrCdqFla5-33" target="h2kuItt2buHwrCdqFla5-59">
          <mxGeometry relative="1" as="geometry" />
        </mxCell>
        <mxCell id="h2kuItt2buHwrCdqFla5-67" style="edgeStyle=orthogonalEdgeStyle;rounded=0;orthogonalLoop=1;jettySize=auto;html=1;entryX=0;entryY=0.5;entryDx=0;entryDy=0;endArrow=none;endFill=0;" edge="1" parent="1" source="h2kuItt2buHwrCdqFla5-33" target="h2kuItt2buHwrCdqFla5-61">
          <mxGeometry relative="1" as="geometry" />
        </mxCell>
        <mxCell id="h2kuItt2buHwrCdqFla5-68" style="edgeStyle=orthogonalEdgeStyle;rounded=0;orthogonalLoop=1;jettySize=auto;html=1;entryX=0;entryY=0.5;entryDx=0;entryDy=0;endArrow=none;endFill=0;" edge="1" parent="1" source="h2kuItt2buHwrCdqFla5-33" target="h2kuItt2buHwrCdqFla5-63">
          <mxGeometry relative="1" as="geometry" />
        </mxCell>
        <mxCell id="h2kuItt2buHwrCdqFla5-33" value="pacientes" style="whiteSpace=wrap;html=1;align=center;" vertex="1" parent="1">
          <mxGeometry x="1030" y="480" width="100" height="40" as="geometry" />
        </mxCell>
        <mxCell id="h2kuItt2buHwrCdqFla5-36" value="nombre" style="ellipse;whiteSpace=wrap;html=1;align=center;" vertex="1" parent="1">
          <mxGeometry x="170" y="510" width="100" height="40" as="geometry" />
        </mxCell>
        <mxCell id="h2kuItt2buHwrCdqFla5-38" value="ID-enfermera" style="ellipse;whiteSpace=wrap;html=1;align=center;fontStyle=4;" vertex="1" parent="1">
          <mxGeometry x="170" y="440" width="100" height="40" as="geometry" />
        </mxCell>
        <mxCell id="h2kuItt2buHwrCdqFla5-40" value="num.telefonico" style="ellipse;shape=doubleEllipse;margin=3;whiteSpace=wrap;html=1;align=center;" vertex="1" parent="1">
          <mxGeometry x="170" y="580" width="100" height="40" as="geometry" />
        </mxCell>
        <mxCell id="h2kuItt2buHwrCdqFla5-42" value="turno_laboral" style="ellipse;whiteSpace=wrap;html=1;align=center;dashed=1;" vertex="1" parent="1">
          <mxGeometry x="170" y="650" width="100" height="40" as="geometry" />
        </mxCell>
        <mxCell id="h2kuItt2buHwrCdqFla5-47" value="nombre" style="ellipse;whiteSpace=wrap;html=1;align=center;" vertex="1" parent="1">
          <mxGeometry x="560" y="760" width="100" height="40" as="geometry" />
        </mxCell>
        <mxCell id="h2kuItt2buHwrCdqFla5-49" value="horario_laboral" style="ellipse;whiteSpace=wrap;html=1;align=center;dashed=1;" vertex="1" parent="1">
          <mxGeometry x="680" y="760" width="100" height="40" as="geometry" />
        </mxCell>
        <mxCell id="h2kuItt2buHwrCdqFla5-50" value="especialidad" style="ellipse;shape=doubleEllipse;margin=3;whiteSpace=wrap;html=1;align=center;" vertex="1" parent="1">
          <mxGeometry x="810" y="760" width="100" height="40" as="geometry" />
        </mxCell>
        <mxCell id="h2kuItt2buHwrCdqFla5-51" value="ID-medico" style="ellipse;whiteSpace=wrap;html=1;align=center;fontStyle=4;" vertex="1" parent="1">
          <mxGeometry x="440" y="760" width="100" height="40" as="geometry" />
        </mxCell>
        <mxCell id="h2kuItt2buHwrCdqFla5-52" value="num.telefonico" style="ellipse;shape=doubleEllipse;margin=3;whiteSpace=wrap;html=1;align=center;" vertex="1" parent="1">
          <mxGeometry x="930" y="760" width="100" height="40" as="geometry" />
        </mxCell>
        <mxCell id="h2kuItt2buHwrCdqFla5-58" value="nombre" style="ellipse;whiteSpace=wrap;html=1;align=center;" vertex="1" parent="1">
          <mxGeometry x="1210" y="360" width="100" height="40" as="geometry" />
        </mxCell>
        <mxCell id="h2kuItt2buHwrCdqFla5-59" value="direccion" style="ellipse;whiteSpace=wrap;html=1;align=center;" vertex="1" parent="1">
          <mxGeometry x="1210" y="420" width="100" height="40" as="geometry" />
        </mxCell>
        <mxCell id="h2kuItt2buHwrCdqFla5-61" value="edad" style="ellipse;whiteSpace=wrap;html=1;align=center;dashed=1;" vertex="1" parent="1">
          <mxGeometry x="1210" y="480" width="100" height="40" as="geometry" />
        </mxCell>
        <mxCell id="h2kuItt2buHwrCdqFla5-63" value="telefono" style="ellipse;shape=doubleEllipse;margin=3;whiteSpace=wrap;html=1;align=center;" vertex="1" parent="1">
          <mxGeometry x="1210" y="540" width="100" height="40" as="geometry" />
        </mxCell>
        <mxCell id="h2kuItt2buHwrCdqFla5-64" value="id-paciente" style="ellipse;whiteSpace=wrap;html=1;align=center;fontStyle=4;" vertex="1" parent="1">
          <mxGeometry x="1210" y="600" width="100" height="40" as="geometry" />
        </mxCell>
        <mxCell id="h2kuItt2buHwrCdqFla5-69" style="edgeStyle=orthogonalEdgeStyle;rounded=0;orthogonalLoop=1;jettySize=auto;html=1;entryX=0;entryY=0.7;entryDx=0;entryDy=0;entryPerimeter=0;endArrow=none;endFill=0;" edge="1" parent="1" source="h2kuItt2buHwrCdqFla5-33" target="h2kuItt2buHwrCdqFla5-64">
          <mxGeometry relative="1" as="geometry" />
        </mxCell>
      </root>
    </mxGraphModel>
  </diagram>
</mxfile>
